<?xml version="1.0" encoding="utf-8"?>
<!-- Generator: Adobe Illustrator 15.0.0, SVG Export Plug-In . SVG Version: 6.00 Build 0)  -->
<!DOCTYPE svg PUBLIC "-//W3C//DTD SVG 1.1//EN" "http://www.w3.org/Graphics/SVG/1.1/DTD/svg11.dtd">
<svg version="1.1" id="Calque_1" xmlns="http://www.w3.org/2000/svg" xmlns:xlink="http://www.w3.org/1999/xlink" x="0px" y="0px"
	 width="850.39px" height="850.39px" viewBox="0 0 850.39 850.39" enable-background="new 0 0 850.39 850.39" xml:space="preserve">
<path fill="#DC363B" d="M424.78,0.589C190.447,0.589,0.482,190.554,0.482,424.887c0,234.333,189.965,424.298,424.298,424.298
	c234.333,0,424.297-189.965,424.297-424.298C849.078,190.554,659.113,0.589,424.78,0.589z M702.785,318.275
	c-11.24,9.729-34.131,21.508-68.65,35.322c-23.918,9.533-38.666,17.224-44.242,23.076c-5.574,5.841-8.277,16.263-8.104,31.271
	c0.99,21.921,8.318,51.36,22.006,88.31c13.688,36.934,22.533,64.604,26.541,82.984c1.656,8.002,0.635,15.938-3.068,23.807
	c-3.699,7.857-9.555,14.082-17.596,18.67c-10.541,6.564-23.846,6.854-39.902,0.885c-16.061-5.977-42.666-21.096-79.832-45.355
	c-2.139-1.24-5.014-3.037-8.635-5.418c-11.445-7.875-19.645-13.486-24.619-16.84c-4.977-3.365-11.771-7.178-20.375-11.447
	c-8.607-4.279-14.279-7.232-17.02-8.855c-2.731-1.635-7.56-2.771-14.483-3.426c-6.92-0.66-11.457-0.877-13.599-0.633
	c-2.141,0.223-6.675,2.051-13.59,5.469c-6.92,3.406-11.759,6.494-14.527,9.262c-2.768,2.756-8.338,7.881-16.714,15.357
	c-8.372,7.467-14.986,13.838-19.849,19.129c-4.858,5.277-12.864,13.77-24.02,25.479c-3.745,4.109-6.552,7.197-8.423,9.258
	c-10.437,11.129-18.385,19.137-23.846,24.025c-5.462,4.879-10.796,9.383-16.003,13.488c-5.203,4.096-10.063,5.877-14.553,5.354
	c-4.492-0.537-8.934-1.555-13.313-3.043c-4.375-1.504-10.734-4.201-19.06-8.121c-16.212-8.762-26.084-16.115-29.613-22.063
	c-3.521-5.959-3.563-15.244-0.115-27.852c1.917-7.92,8.024-18.262,18.329-31.031c10.305-12.787,21.383-23.834,33.231-33.174
	c34.839-27.451,52.71-47.795,53.629-61.029c0.913-13.248-14.33-24.658-45.751-34.238c-20.731-6.363-35.218-12.56-43.455-18.579
	c-8.241-6.031-12.895-14.148-13.958-24.364c-2.42-20.795,3.207-36.006,16.884-45.607c13.675-9.618,32.229-11.729,55.684-6.34
	c12.335,3.081,24.446,4.6,36.332,4.553c11.887-0.065,19.903-1.716,24.027-4.966c4.132-3.255,12.937-16.455,26.424-39.594
	c13.49-23.153,27.66-49.299,42.511-78.464c20.869-41.483,36.889-69.531,48.067-84.153c11.172-14.63,21.615-21.7,31.32-21.19
	c13.639,0.305,26.379,6.134,38.219,17.472c11.84,11.321,17.072,22.778,15.705,34.336c-1.428,9.269,3.594,30.046,15.07,62.337
	c10.363,27.92,22.086,43.713,35.16,47.386c13.076,3.664,35.197-2.42,66.377-18.257c21.139-10.845,38.715-14.216,52.715-10.107
	c14.006,4.093,23.828,15.277,29.479,33.529C717.632,297.406,714.033,308.539,702.785,318.275z"/>
</svg>
